<svg xmlns="http://www.w3.org/2000/svg" width="860" height="760" viewBox="0 0 860 760">
<rect width="100%" height="100%" fill="#ffffff"/>
<text x="430.0" y="34" text-anchor="middle" font-family="Arial" font-size="21" font-weight="700">UWF24 MITRE Technique Mapping Confusion Matrix</text>
<text x="330.0" y="78" text-anchor="middle" font-family="Arial" font-size="14">Predicted</text>
<text x="35" y="270.0" transform="rotate(-90 35 270.0)" text-anchor="middle" font-family="Arial" font-size="14">Actual</text>
<text x="210.0" y="96" text-anchor="middle" font-family="Arial" font-size="12">T1048</text>
<text x="290.0" y="96" text-anchor="middle" font-family="Arial" font-size="12">T1078</text>
<text x="370.0" y="96" text-anchor="middle" font-family="Arial" font-size="12">T1110</text>
<text x="450.0" y="96" text-anchor="middle" font-family="Arial" font-size="12">none</text>
<text x="156" y="154.0" text-anchor="end" font-family="Arial" font-size="12">T1048</text>
<rect x="170" y="110" width="80" height="80" fill="rgb(244,249,255)" stroke="#333333"/>
<text x="210.0" y="155.0" text-anchor="middle" font-family="Arial" font-size="14" font-weight="700">23</text>
<rect x="250" y="110" width="80" height="80" fill="rgb(245,250,255)" stroke="#333333"/>
<text x="290.0" y="155.0" text-anchor="middle" font-family="Arial" font-size="14" font-weight="700">0</text>
<rect x="330" y="110" width="80" height="80" fill="rgb(245,250,255)" stroke="#333333"/>
<text x="370.0" y="155.0" text-anchor="middle" font-family="Arial" font-size="14" font-weight="700">0</text>
<rect x="410" y="110" width="80" height="80" fill="rgb(245,250,255)" stroke="#333333"/>
<text x="450.0" y="155.0" text-anchor="middle" font-family="Arial" font-size="14" font-weight="700">0</text>
<text x="156" y="234.0" text-anchor="end" font-family="Arial" font-size="12">T1078</text>
<rect x="170" y="190" width="80" height="80" fill="rgb(245,250,255)" stroke="#333333"/>
<text x="210.0" y="235.0" text-anchor="middle" font-family="Arial" font-size="14" font-weight="700">0</text>
<rect x="250" y="190" width="80" height="80" fill="rgb(243,248,255)" stroke="#333333"/>
<text x="290.0" y="235.0" text-anchor="middle" font-family="Arial" font-size="14" font-weight="700">326</text>
<rect x="330" y="190" width="80" height="80" fill="rgb(245,250,255)" stroke="#333333"/>
<text x="370.0" y="235.0" text-anchor="middle" font-family="Arial" font-size="14" font-weight="700">0</text>
<rect x="410" y="190" width="80" height="80" fill="rgb(245,250,255)" stroke="#333333"/>
<text x="450.0" y="235.0" text-anchor="middle" font-family="Arial" font-size="14" font-weight="700">0</text>
<text x="156" y="314.0" text-anchor="end" font-family="Arial" font-size="12">T1110</text>
<rect x="170" y="270" width="80" height="80" fill="rgb(245,250,255)" stroke="#333333"/>
<text x="210.0" y="315.0" text-anchor="middle" font-family="Arial" font-size="14" font-weight="700">0</text>
<rect x="250" y="270" width="80" height="80" fill="rgb(245,250,255)" stroke="#333333"/>
<text x="290.0" y="315.0" text-anchor="middle" font-family="Arial" font-size="14" font-weight="700">0</text>
<rect x="330" y="270" width="80" height="80" fill="rgb(108,113,255)" stroke="#333333"/>
<text x="370.0" y="315.0" text-anchor="middle" font-family="Arial" font-size="14" font-weight="700">43494</text>
<rect x="410" y="270" width="80" height="80" fill="rgb(245,250,255)" stroke="#333333"/>
<text x="450.0" y="315.0" text-anchor="middle" font-family="Arial" font-size="14" font-weight="700">0</text>
<text x="156" y="394.0" text-anchor="end" font-family="Arial" font-size="12">none</text>
<rect x="170" y="350" width="80" height="80" fill="rgb(245,250,255)" stroke="#333333"/>
<text x="210.0" y="395.0" text-anchor="middle" font-family="Arial" font-size="14" font-weight="700">0</text>
<rect x="250" y="350" width="80" height="80" fill="rgb(245,250,255)" stroke="#333333"/>
<text x="290.0" y="395.0" text-anchor="middle" font-family="Arial" font-size="14" font-weight="700">0</text>
<rect x="330" y="350" width="80" height="80" fill="rgb(245,250,255)" stroke="#333333"/>
<text x="370.0" y="395.0" text-anchor="middle" font-family="Arial" font-size="14" font-weight="700">0</text>
<rect x="410" y="350" width="80" height="80" fill="rgb(95,100,255)" stroke="#333333"/>
<text x="450.0" y="395.0" text-anchor="middle" font-family="Arial" font-size="14" font-weight="700">47906</text>
</svg>